<?xml version="1.0" standalone="no"?>
<!DOCTYPE svg PUBLIC "-//W3C//DTD SVG 20010904//EN"
 "http://www.w3.org/TR/2001/REC-SVG-20010904/DTD/svg10.dtd">
<svg version="1.0" xmlns="http://www.w3.org/2000/svg"
 width="260.000000pt" height="260.000000pt" viewBox="0 0 260.000000 260.000000"
 preserveAspectRatio="xMidYMid meet">
<metadata>
Created by potrace 1.11, written by Peter Selinger 2001-2013
</metadata>
<g transform="translate(0.000000,260.000000) scale(0.100000,-0.100000)"
fill="#000000" stroke="none">
<path d="M866 2343 c-127 -126 -374 -370 -549 -543 l-317 -314 2 -191 1 -190
542 -538 541 -537 194 0 194 0 538 537 538 537 0 191 0 191 -534 533 c-294
294 -540 538 -548 542 -7 5 -94 9 -192 9 l-180 0 -230 -227z m464 134 c0 -6
-220 -233 -490 -502 -270 -269 -490 -492 -490 -495 0 -3 194 -199 430 -435
237 -236 430 -434 430 -439 0 -17 -93 -106 -110 -106 -8 0 -235 220 -504 489
l-490 490 95 96 c52 54 281 281 510 506 l417 409 101 0 c74 0 101 -3 101 -13z
m637 -519 l503 -503 0 -102 c0 -56 -3 -104 -7 -106 -5 -3 -230 215 -502 484
-272 269 -499 489 -505 489 -6 0 -202 -191 -436 -425 -234 -234 -432 -425
-440 -425 -17 0 -110 89 -110 106 0 12 975 984 987 984 5 0 234 -226 510 -502z
m-7 -349 l495 -489 -505 -505 -505 -505 -113 0 c-61 0 -112 4 -112 8 0 4 223
230 495 502 l495 495 -436 436 -437 437 53 56 c29 31 58 56 64 56 6 -1 234
-221 506 -491z m-361 9 c171 -168 311 -313 311 -320 0 -15 -611 -628 -626
-628 -18 0 -635 613 -632 627 4 17 620 634 629 630 4 -1 147 -140 318 -309z
m-1082 -678 c231 -228 456 -451 501 -495 l82 -80 433 433 c238 237 437 432
443 432 6 0 35 -25 64 -56 l53 -56 -497 -496 -496 -497 -507 507 -507 507 -4
85 c-4 76 3 145 13 135 2 -2 192 -191 422 -419z"/>
</g>
</svg>
