<svg width="55" height="45" viewBox="0 0 55 45" fill="none" xmlns="http://www.w3.org/2000/svg">
<path fill-rule="evenodd" clip-rule="evenodd" d="M36.739 28.324C36.442 23.7 32.103 19.206 27.559 19.206C23.015 19.206 18.675 23.7 18.379 28.324H36.739Z" fill="#E53E3E" stroke="white"/>
<path fill-rule="evenodd" clip-rule="evenodd" d="M37.255 28.824C37.255 23.914 32.692 18.706 27.559 18.706C22.425 18.706 17.863 23.913 17.863 28.824H37.255Z" stroke="#284967" stroke-width="1.5" stroke-linecap="round" stroke-linejoin="round"/>
<path fill-rule="evenodd" clip-rule="evenodd" d="M27.559 17.863C27.0557 17.8712 26.5557 17.7792 26.0883 17.5923C25.6208 17.4054 25.1953 17.1273 24.8364 16.7743C24.4775 16.4213 24.1924 16.0004 23.9978 15.5361C23.8032 15.0718 23.703 14.5734 23.7029 14.07C23.7028 13.5666 23.803 13.0682 23.9974 12.6038C24.1919 12.1395 24.4769 11.7185 24.8357 11.3654C25.1945 11.0123 25.6199 10.7341 26.0873 10.5471C26.5547 10.36 27.0546 10.2679 27.558 10.276C28.5534 10.2922 29.5026 10.6989 30.2009 11.4086C30.8991 12.1183 31.2904 13.0739 31.2904 14.0695C31.2904 15.0651 30.8991 16.0207 30.2009 16.7304C29.5026 17.44 28.5534 17.8468 27.558 17.863H27.559Z" fill="#E53E3E"/>
<path fill-rule="evenodd" clip-rule="evenodd" d="M27.559 18.706C26.3291 18.706 25.1495 18.2174 24.2798 17.3477C23.4101 16.478 22.9215 15.2984 22.9215 14.0685C22.9215 12.8386 23.4101 11.659 24.2798 10.7893C25.1495 9.91959 26.3291 9.431 27.559 9.431C28.7889 9.431 29.9685 9.91959 30.8382 10.7893C31.7079 11.659 32.1965 12.8386 32.1965 14.0685C32.1965 15.2984 31.7079 16.478 30.8382 17.3477C29.9685 18.2174 28.7889 18.706 27.559 18.706ZM17.863 11.118L19.549 12.804L17.863 11.118ZM11.118 22.078H15.333H11.118ZM17.863 33.882L19.549 32.196L17.863 33.882ZM18.706 6.059C18.7154 6.72927 18.5915 7.39474 18.3416 8.01673C18.0916 8.63871 17.7205 9.20481 17.2498 9.68214C16.7792 10.1595 16.2183 10.5385 15.5999 10.7972C14.9815 11.0559 14.3178 11.1891 13.6475 11.1891C12.9772 11.1891 12.3135 11.0559 11.6951 10.7972C11.0767 10.5385 10.5158 10.1595 10.0452 9.68214C9.57452 9.20481 9.20341 8.63871 8.95343 8.01673C8.70344 7.39474 8.57956 6.72927 8.58899 6.059C8.60768 4.72972 9.14885 3.46121 10.0955 2.52781C11.0421 1.59441 12.3181 1.07112 13.6475 1.07112C14.9769 1.07112 16.2529 1.59441 17.1995 2.52781C18.1461 3.46121 18.6873 4.72972 18.706 6.059ZM18.706 38.941C18.7154 39.6113 18.5915 40.2767 18.3416 40.8987C18.0916 41.5207 17.7205 42.0868 17.2498 42.5641C16.7792 43.0415 16.2183 43.4205 15.5999 43.6792C14.9815 43.9379 14.3178 44.0711 13.6475 44.0711C12.9772 44.0711 12.3135 43.9379 11.6951 43.6792C11.0767 43.4205 10.5158 43.0415 10.0452 42.5641C9.57452 42.0868 9.20341 41.5207 8.95343 40.8987C8.70344 40.2767 8.57956 39.6113 8.58899 38.941C8.60768 37.6117 9.14885 36.3432 10.0955 35.4098C11.0421 34.4764 12.3181 33.9531 13.6475 33.9531C14.9769 33.9531 16.2529 34.4764 17.1995 35.4098C18.1461 36.3432 18.6873 37.6117 18.706 38.941ZM11.118 22.922C11.1274 23.5923 11.0035 24.2577 10.7536 24.8797C10.5036 25.5017 10.1325 26.0678 9.6618 26.5451C9.19114 27.0225 8.63031 27.4015 8.0119 27.6602C7.39349 27.9189 6.72983 28.0521 6.05949 28.0521C5.38915 28.0521 4.72549 27.9189 4.10708 27.6602C3.48867 27.4015 2.92784 27.0225 2.45718 26.5451C1.98652 26.0678 1.61541 25.5017 1.36543 24.8797C1.11544 24.2577 0.991563 23.5923 1.00099 22.922C1.01968 21.5927 1.56085 20.3242 2.50747 19.3908C3.45409 18.4574 4.73008 17.9341 6.05949 17.9341C7.3889 17.9341 8.66489 18.4574 9.61151 19.3908C10.5581 20.3242 11.0993 21.5927 11.118 22.922ZM36.412 11.118L34.725 12.804L36.412 11.118ZM42.314 22.078H38.098H42.314ZM36.412 33.882L34.725 32.196L36.412 33.882ZM35.569 6.059C35.5596 6.72927 35.6835 7.39474 35.9334 8.01673C36.1834 8.63871 36.5545 9.20481 37.0252 9.68214C37.4958 10.1595 38.0567 10.5385 38.6751 10.7972C39.2935 11.0559 39.9572 11.1891 40.6275 11.1891C41.2978 11.1891 41.9615 11.0559 42.5799 10.7972C43.1983 10.5385 43.7592 10.1595 44.2298 9.68214C44.7005 9.20481 45.0716 8.63871 45.3216 8.01673C45.5715 7.39474 45.6954 6.72927 45.686 6.059C45.6673 4.72972 45.1261 3.46121 44.1795 2.52781C43.2329 1.59441 41.9569 1.07112 40.6275 1.07112C39.2981 1.07112 38.0221 1.59441 37.0755 2.52781C36.1289 3.46121 35.5877 4.72972 35.569 6.059ZM35.569 38.941C35.5596 39.6113 35.6835 40.2767 35.9334 40.8987C36.1834 41.5207 36.5545 42.0868 37.0252 42.5641C37.4958 43.0415 38.0567 43.4205 38.6751 43.6792C39.2935 43.9379 39.9572 44.0711 40.6275 44.0711C41.2978 44.0711 41.9615 43.9379 42.5799 43.6792C43.1983 43.4205 43.7592 43.0415 44.2298 42.5641C44.7005 42.0868 45.0716 41.5207 45.3216 40.8987C45.5715 40.2767 45.6954 39.6113 45.686 38.941C45.6673 37.6117 45.1261 36.3432 44.1795 35.4098C43.2329 34.4764 41.9569 33.9531 40.6275 33.9531C39.2981 33.9531 38.0221 34.4764 37.0755 35.4098C36.1289 36.3432 35.5877 37.6117 35.569 38.941ZM43.157 22.922C43.1476 23.5923 43.2715 24.2577 43.5214 24.8797C43.7714 25.5017 44.1425 26.0678 44.6132 26.5451C45.0838 27.0225 45.6447 27.4015 46.2631 27.6602C46.8815 27.9189 47.5452 28.0521 48.2155 28.0521C48.8858 28.0521 49.5495 27.9189 50.1679 27.6602C50.7863 27.4015 51.3472 27.0225 51.8178 26.5451C52.2885 26.0678 52.6596 25.5017 52.9096 24.8797C53.1595 24.2577 53.2834 23.5923 53.274 22.922C53.2553 21.5927 52.7141 20.3242 51.7675 19.3908C50.8209 18.4574 49.5449 17.9341 48.2155 17.9341C46.8861 17.9341 45.6101 18.4574 44.6635 19.3908C43.7169 20.3242 43.1757 21.5927 43.157 22.922Z" stroke="#284967" stroke-width="1.5" stroke-linecap="round" stroke-linejoin="round"/>
</svg>
