<svg width="28" height="45" viewBox="0 0 28 45" fill="none" xmlns="http://www.w3.org/2000/svg">
<path fill-rule="evenodd" clip-rule="evenodd" d="M1 7H27V37H1V7Z" fill="#E53E3E"/>
<path d="M9.712 3.905H17.263H9.712ZM22.525 44H5.612C3.065 44 1 42.009 1 39.552V5.448C1 2.991 3.065 1 5.612 1H22.525C25.072 1 27.137 2.991 27.137 5.448V39.552C27.137 42.009 25.072 44 22.525 44ZM1 6.81H27.137H1ZM1.58 37.027H26.556H1.58Z" stroke="#284967" stroke-width="1.5" stroke-linecap="round" stroke-linejoin="round"/>
<path fill-rule="evenodd" clip-rule="evenodd" d="M14.359 40.514C14.359 40.6681 14.2978 40.8159 14.1888 40.9248C14.0799 41.0338 13.9321 41.095 13.778 41.095C13.6239 41.095 13.4761 41.0338 13.3672 40.9248C13.2582 40.8159 13.197 40.6681 13.197 40.514C13.197 40.3599 13.2582 40.2121 13.3672 40.1032C13.4761 39.9942 13.6239 39.933 13.778 39.933C13.9321 39.933 14.0799 39.9942 14.1888 40.1032C14.2978 40.2121 14.359 40.3599 14.359 40.514Z" stroke="#284967" stroke-linecap="round" stroke-linejoin="round"/>
</svg>
