<svg width="45" height="45" viewBox="0 0 45 45" fill="none" xmlns="http://www.w3.org/2000/svg">
<path d="M10.275 14.49H24.608" stroke="#284967" stroke-width="1.5" stroke-linecap="round" stroke-linejoin="round"/>
<path fill-rule="evenodd" clip-rule="evenodd" d="M20.298 29.361L35.156 14.565L40.464 20.316L26.194 34.743C25.316 33.14 24.506 31.953 23.764 31.18C23.024 30.407 21.868 29.801 20.298 29.361Z" fill="#E53E3E"/>
<path d="M32.196 16.176V6.966C32.196 5.999 31.346 5.216 30.299 5.216H24.608L32.196 16.176ZM8.05899 14.069C8.05893 14.2351 8.02614 14.3996 7.96251 14.5531C7.89888 14.7065 7.80564 14.8459 7.68813 14.9633C7.4508 15.2005 7.12899 15.3336 6.79349 15.3335C6.45799 15.3334 6.13629 15.2 5.89915 14.9626C5.66201 14.7253 5.52886 14.4035 5.52899 14.068C5.52899 13.7325 5.66227 13.4107 5.8995 13.1735C6.13674 12.9363 6.45849 12.803 6.79399 12.803C7.12949 12.803 7.45125 12.9363 7.68848 13.1735C7.92572 13.4107 8.05899 13.7325 8.05899 14.068V14.069ZM11.118 22.078H24.608H11.118ZM8.05899 21.657C8.05893 21.8231 8.02614 21.9876 7.96251 22.1411C7.89888 22.2945 7.80564 22.4339 7.68813 22.5513C7.57062 22.6688 7.43113 22.7619 7.27762 22.8254C7.12412 22.8889 6.95961 22.9216 6.79349 22.9215C6.62737 22.9214 6.46289 22.8886 6.30944 22.825C6.15598 22.7614 6.01657 22.6681 5.89915 22.5506C5.78173 22.4331 5.6886 22.2936 5.62509 22.1401C5.56158 21.9866 5.52893 21.8221 5.52899 21.656C5.52899 21.3205 5.66227 20.9987 5.8995 20.7615C6.13674 20.5243 6.45849 20.391 6.79399 20.391C7.12949 20.391 7.45125 20.5243 7.68848 20.7615C7.92572 20.9987 8.05899 21.3205 8.05899 21.656V21.657ZM11 28.824H19.431H11ZM8.05899 29.245C8.05899 29.5805 7.92572 29.9023 7.68848 30.1395C7.45125 30.3767 7.12949 30.51 6.79399 30.51C6.45849 30.51 6.13674 30.3767 5.8995 30.1395C5.66227 29.9023 5.52899 29.5805 5.52899 29.245C5.52899 28.9095 5.66227 28.5877 5.8995 28.3505C6.13674 28.1133 6.45849 27.98 6.79399 27.98C7.12949 27.98 7.45125 28.1133 7.68848 28.3505C7.92572 28.5877 8.05899 28.9095 8.05899 29.245ZM11.118 36.412H18.706H11.118ZM8.05899 36.833C8.05899 37.1685 7.92572 37.4903 7.68848 37.7275C7.45125 37.9647 7.12949 38.098 6.79399 38.098C6.45849 38.098 6.13674 37.9647 5.8995 37.7275C5.66227 37.4903 5.52899 37.1685 5.52899 36.833C5.52899 36.4975 5.66227 36.1757 5.8995 35.9385C6.13674 35.7013 6.45849 35.568 6.79399 35.568C7.12949 35.568 7.45125 35.7013 7.68848 35.9385C7.92572 36.1757 8.05899 36.4975 8.05899 36.833ZM21.695 2.475H18.65C18.5035 2.04646 18.2273 1.67416 17.8595 1.40983C17.4918 1.1455 17.0509 1.00226 16.598 1C15.648 1 14.848 1.618 14.548 2.475H11.5C9.88999 2.475 8.58699 3.796 8.58699 5.426V6.902H24.607V5.426C24.607 3.796 23.303 2.476 21.694 2.476L21.695 2.475ZM35.147 14.912L40.464 19.971L35.147 14.912ZM20.392 29.667C20.392 29.667 22.421 29.729 24.327 31.633C26.232 33.54 26.274 34.77 26.274 34.77L20.392 29.667Z" stroke="#284967" stroke-width="1.5" stroke-linecap="round" stroke-linejoin="round"/>
<path d="M8.33998 5.216H2.83498C2.59326 5.21666 2.35404 5.26493 2.13099 5.35807C1.90793 5.45121 1.70542 5.58738 1.53501 5.75881C1.3646 5.93024 1.22964 6.13357 1.13784 6.35717C1.04603 6.58078 0.999194 6.82028 0.999983 7.062V42.153C0.999062 42.3948 1.04581 42.6344 1.13755 42.8581C1.22929 43.0819 1.36423 43.2853 1.53465 43.4568C1.70508 43.6284 1.90764 43.7646 2.13076 43.8578C2.35388 43.951 2.59318 43.9993 2.83498 44H30.36C30.6018 43.9993 30.8411 43.951 31.0642 43.8578C31.2873 43.7646 31.4899 43.6284 31.6603 43.4568C31.8307 43.2853 31.9657 43.0819 32.0574 42.8581C32.1492 42.6344 32.1959 42.3948 32.195 42.153V29.083" stroke="#284967" stroke-width="1.5" stroke-linecap="round" stroke-linejoin="round"/>
<path fill-rule="evenodd" clip-rule="evenodd" d="M18.706 36.412L20.194 28.972L37.458 12.24C38.1762 11.5217 39.1503 11.1181 40.166 11.118H40.17C41.1858 11.118 42.16 11.5215 42.8782 12.2398C43.5965 12.958 44 13.9322 44 14.948V14.952C43.9999 15.9677 43.5963 16.9418 42.878 17.66L26.145 34.924L18.705 36.412H18.706Z" stroke="#284967" stroke-width="1.5" stroke-linecap="round" stroke-linejoin="round"/>
</svg>
