<svg width="45" height="45" viewBox="0 0 45 45" fill="none" xmlns="http://www.w3.org/2000/svg">
<path d="M33.882 18.185C33.882 14.214 30.579 10.275 26.505 10.275H17.652C13.578 10.275 10.275 13.495 10.275 17.466V27.534C10.275 31.507 13.578 34.725 17.652 34.725" stroke="#284967" stroke-width="1.5" stroke-linecap="round" stroke-linejoin="round"/>
<path fill-rule="evenodd" clip-rule="evenodd" d="M33.04 18.483C33.04 14.785 29.972 11.118 26.189 11.118H17.969C14.185 11.118 11.118 14.116 11.118 17.813V27.187C11.118 30.885 14.185 33.882 17.968 33.882" fill="#E53E3E"/>
<path fill-rule="evenodd" clip-rule="evenodd" d="M44 31.775C44 38.525 38.526 44 31.775 44C25.023 44 19.549 38.526 19.549 31.775C19.549 25.023 25.023 19.549 31.775 19.549C38.525 19.549 44 25.023 44 31.775Z" fill="white" stroke="#284967" stroke-width="1.5" stroke-linecap="round" stroke-linejoin="round"/>
<path d="M24.608 9.853V1H1V24.608H9.853" stroke="#284967" stroke-width="1.5" stroke-linecap="round" stroke-linejoin="round"/>
</svg>
