<svg width="58" height="43" viewBox="0 0 58 43" fill="none" xmlns="http://www.w3.org/2000/svg">
<path opacity="0.892" fill-rule="evenodd" clip-rule="evenodd" d="M41 18H57V35H41V18Z" fill="#E53E3E"/>
<path d="M41.44 34.628H56.74H41.44ZM54.828 12.577H43.352C42.296 12.577 41.439 13.45 41.439 14.525V39.847C41.439 40.922 42.296 41.795 43.352 41.795H54.828C55.884 41.795 56.741 40.922 56.741 39.847V14.525C56.741 13.45 55.884 12.577 54.828 12.577ZM41.44 17.538H56.74H41.44Z" stroke="#284967" stroke-width="1.5" stroke-linecap="round" stroke-linejoin="round"/>
<path d="M15.208 41.795H35.428H15.208ZM51.276 12.48V6.043C51.276 3.258 48.994 1 46.179 1H6.097C3.282 1 1 3.258 1 6.043V28.483C1 31.268 3.282 33.526 6.097 33.526H41.607L51.276 12.48ZM25.592 32.974V41.794V32.974ZM1 25.256H41.44H1Z" stroke="#284967" stroke-width="1.5" stroke-linecap="round" stroke-linejoin="round"/>
</svg>
